<svg xmlns="http://www.w3.org/2000/svg" viewBox="0 0 906.99 744.09"><defs><style>.cls-1{fill:#273e74;}.cls-2{fill:#fefefe;}</style></defs><g id="Layer_2" data-name="Layer 2"><g id="Layer_1-2" data-name="Layer 1"><path class="cls-1" d="M445.64,1.35c5.52-.48,11-.92,16.57-1.35-7,8.56-14,17.08-21,25.63q13.59,17.64,27.23,35.28-8,.68-15.94,1.29Q443,48.57,433.41,34.93q-4.61,5.49-9.17,11c.48,6.15,1,12.3,1.49,18.45l-12.3,1q-2.51-30.51-5-61,6.15-.51,12.31-1c.73,9,1.45,18.05,2.21,27.07Q434.35,15.91,445.64,1.35Z"/><path class="cls-1" d="M480,2l12.3,1q-1,12-2,24,12.06,1,24.13,2c.68-8,1.33-16,2-24q6.14.48,12.29,1-2.51,30.48-5.05,61c-4.1-.34-8.2-.67-12.29-1,.72-8.88,1.47-17.77,2.19-26.66-8-.66-16.07-1.34-24.11-2-.75,8.88-1.47,17.76-2.22,26.64l-12.29-1Q477.46,32.44,480,2Z"/><path class="cls-1" d="M563.59,15.72c13.19-2.5,28.9,3.21,34.91,15.82,4.21,8.66,2.87,18.88-.37,27.63-2.69,7.44-7.93,14.26-15.33,17.46-8.53,3.9-18.55,2.37-26.8-1.52a26.62,26.62,0,0,1-14.53-17.29c-2.23-8.73-.09-17.94,3.47-26A28.41,28.41,0,0,1,563.59,15.72Zm3.9,10.83c-7.18,1.93-11.11,9.08-12.89,15.78-1.85,6.27-2.26,13.71,1.92,19.17,5.7,8,18.92,8.83,25.18,1.07a32.62,32.62,0,0,0,6.58-23.68C586.86,29.58,576.16,24.15,567.49,26.55Z"/><path class="cls-1" d="M331.67,20.52c7.74-4.17,17.54-5.77,25.68-1.79,4.27,2,7.36,5.67,9.87,9.52-3.62,2-7.25,4-10.86,6.09-2.7-4.55-7.86-7.8-13.27-6.78a14.29,14.29,0,0,0-12.71,14.3,40.47,40.47,0,0,0,6.83,21.93c4.69,6.71,15.46,7.27,20.94,1.27,3.2-3.34,3.64-8.17,3.66-12.56,4.17.14,8.35.27,12.53.43-.11,6.24-1.38,12.83-5.58,17.68-5.1,6-13,8.87-20.69,9.34-9.61.52-19-5-23.82-13.22a45.59,45.59,0,0,1-6.13-23.86A26.33,26.33,0,0,1,331.67,20.52Z"/><path class="cls-1" d="M594.41,85.91Q618,63.08,641.66,40.28l11.86,5.47q-1.65,32.93-3.34,65.85c-4.07-1.87-8.14-3.73-12.2-5.62q.46-7.42.95-14.86c-7.41-3.42-14.82-6.86-22.25-10.23q-5.17,5.27-10.38,10.5Q600.35,88.66,594.41,85.91Zm30.08-12.82q7.56,3.52,15.15,7c.61-8,1.25-16.08,1.84-24.12Q633,64.51,624.49,73.09Z"/><path class="cls-1" d="M272.5,42.55A26.68,26.68,0,0,1,295,46.07c6.63,4.59,11,11.74,13.87,19.16,2.73,7.12,3.11,15.36-.18,22.37-3.83,8.53-12.27,14.07-21,16.7a26.51,26.51,0,0,1-23.19-3.89c-6.72-4.93-11-12.5-13.7-20.23-3-8.54-2-18.66,3.54-26C258.9,48.47,265.54,44.62,272.5,42.55Zm.93,10.85c-5.06,1.64-9.68,5.39-11.25,10.6-1.93,6,.26,12.31,3.06,17.63S272.19,92,278.17,93.52c9,2.59,19.45-4.2,20.29-13.63.6-7.61-3.07-14.9-7.57-20.79C286.93,53.88,279.74,51.12,273.43,53.4Z"/><path class="cls-1" d="M212.64,76.69q5-3.63,10-7.23,17.9,24.83,35.8,49.64c-3.33,2.43-6.67,4.83-10,7.23-5.23-7.23-10.43-14.46-15.67-21.68q-9.83,7.06-19.63,14.16l15.66,21.68q-5,3.64-10,7.25L183,98.12q5-3.63,10-7.23c4.71,6.49,9.39,13,14.11,19.52q9.83-7.08,19.63-14.18C222,89.71,217.32,83.22,212.64,76.69Z"/><path class="cls-1" d="M711.5,77.83c3.24,2.52,6.45,5.08,9.68,7.61-4.91,6.36-10,12.61-14.91,18.92q9.48,7.52,19,15c5-6.26,10-12.58,15-18.85q4.83,3.81,9.67,7.66-19,24-38,48-4.86-3.83-9.7-7.67,8.31-10.47,16.6-21-9.48-7.51-19-15c-5.56,7-11.06,14-16.61,20.94q-4.86-3.81-9.68-7.64Q692.51,101.8,711.5,77.83Z"/><path class="cls-1" d="M290.73,108q5.19-2.7,10.41-5.37c1.8,3.47,3.59,6.93,5.35,10.42q-5.19,2.7-10.4,5.36Q293.39,113.21,290.73,108Z"/><path class="cls-1" d="M139.46,138.68q4.22-4.5,8.47-9,22.24,21,44.48,42-4.23,4.5-8.47,9Q161.7,159.67,139.46,138.68Z"/><path class="cls-1" d="M759.52,131.6a25.69,25.69,0,0,1,20,4c7.68,5.43,14.11,13.7,14.91,23.35.8,7.94-2.52,15.76-7.69,21.65-5.43,6.21-12.36,11.64-20.59,13.35a26.6,26.6,0,0,1-21.83-5.29c-7.07-5.53-12.84-13.62-13.34-22.83-.57-7.76,2.79-15.32,7.88-21C744.36,138.7,751.24,133.18,759.52,131.6Zm3,11.88c-5.17,1.43-9.46,4.94-13.11,8.74s-6.41,8.43-6.45,13.68c-.32,8.65,7.46,16.73,16.16,16.57,6.14,0,11.47-3.73,15.75-7.8,3.8-3.68,7.36-8.21,7.94-13.64C784,150.49,772.84,140.44,762.47,143.48Z"/><path class="cls-1" d="M488.64,191.49q25.7-21.28,51.58-42.31Q509,317.66,477.73,486.12c-33-6.61-65.52-16.17-95.7-31.13-24.64-12.24-47.65-28.37-65.83-49.16-6.27-7.11-11.14-16.18-10.71-25.91.22-8.61,4.76-16.25,9.34-23.26,9-13.35,19.88-25.33,30.92-37C390.2,273.51,439.48,232.42,488.64,191.49ZM407,290.81c-2.75,6.13-1.83,13.09-.69,19.49-6.11,2.21-12.6,4.9-16.54,10.35a9.57,9.57,0,0,0,.09,11.45c4,5.36,10.37,8,16.45,10.2-1.13,6.39-2.07,13.35.67,19.47A9.58,9.58,0,0,0,417,367.46c6.59-.8,12.07-5,17-9.14,4.93,4.18,10.46,8.39,17.1,9.15a9.58,9.58,0,0,0,9.91-5.6c2.78-6.14,1.86-13.14.71-19.56,6.08-2.19,12.52-4.86,16.48-10.24a9.59,9.59,0,0,0,.1-11.37c-3.93-5.48-10.45-8.18-16.58-10.39,1.13-6.37,2.06-13.3-.64-19.4a9.46,9.46,0,0,0-9-5.8c-7,.32-12.89,4.84-18,9.19-5.13-4.32-10.94-8.8-17.91-9.19A9.44,9.44,0,0,0,407,290.81Z"/><path class="cls-1" d="M115.62,165.51c21.08,6.21,42.13,12.52,63.2,18.75q-4.15,5.28-8.33,10.53l-14.2-4.42q-7.6,9.58-15.2,19.17,3.89,6.3,7.77,12.59c-2.71,3.43-5.44,6.84-8.12,10.29q-16.61-28.33-33.19-56.68C110.23,172.32,112.94,168.93,115.62,165.51Zm7.1,14.11c4.19,6.87,8.46,13.69,12.64,20.57q5.17-6.56,10.37-13.1C138.06,184.59,130.39,182.08,122.72,179.62Z"/><path class="cls-1" d="M723.92,190.61c2.85-2.68,5.69-5.36,8.56-8,2.67,2.84,5.35,5.67,8,8.53q-4.26,4-8.54,8Q727.92,194.9,723.92,190.61Z"/><path class="cls-1" d="M796,192.71c6.73-3.46,14.73-5.06,22.13-2.86,10.4,2.92,18,12.64,20.08,23,1.5,7.2-1.39,14.51-6.24,19.8q-4.5-4.35-9-8.74c1.39-1.89,2.93-3.79,3.49-6.12,2.11-7.88-4.39-16.57-12.44-17.17-5.77-.45-11.1,2.43-15.8,5.43-4.29,2.86-8.68,6.22-10.72,11.12-2.91,6.88,1.1,15.8,8.28,18,3.73,1.19,7.68.24,11.33-.81q1.57,6.06,3.17,12.12c-7.15,2.22-15.45,2.34-21.83-2-9.49-6.56-15.34-19.09-12.08-30.5C778.91,204.12,787.22,197.09,796,192.71Z"/><path class="cls-1" d="M167.19,207.06q4.59,3.63,9.17,7.28-3.62,4.6-7.27,9.19c-3.06-2.41-6.11-4.86-9.2-7.25Q163.52,211.65,167.19,207.06Z"/><path class="cls-1" d="M81.79,218.64c6.75-4,15.3-3.73,22.47-1,6.78,2.64,13.29,6.36,18.31,11.69,4.39,4.67,7.56,11,7,17.51-.28,4.91-2.33,9.48-4.71,13.69Q119,270.79,113.1,281c-7.74-4.39-15.45-8.84-23.18-13.25l-3.16,5.48L80,269.41c1-1.85,2.08-3.69,3.12-5.53Q71.61,257.24,60,250.62q5.76-10.11,11.56-20.19C74.21,225.94,77.16,221.31,81.79,218.64ZM84.13,231c-3.77,4.15-6.13,9.35-9,14.12,4.72,2.72,9.46,5.41,14.18,8.13,2.18-3.78,4.33-7.58,6.52-11.36q3.36,1.91,6.71,3.85c-2.15,3.79-4.34,7.57-6.49,11.37q7.09,4.08,14.22,8.14c2.71-5.06,6.19-9.79,7.92-15.3,1.24-3.89-.45-8.06-3.28-10.78a50.53,50.53,0,0,0-16-10C94.16,227.09,88,227,84.13,231Z"/><path class="cls-1" d="M856.57,264.4q4.81-1.89,9.66-3.72,8.73,22.68,17.44,45.39L874,309.79q-3.27-8.46-6.5-16.91c-15.84,6-31.64,12.17-47.47,18.22q-2.24-5.75-4.44-11.51,23.71-9.13,47.45-18.24C860.93,275.69,858.73,270.05,856.57,264.4Z"/><path class="cls-1" d="M410.8,294.55a8.11,8.11,0,0,1,7.27-4.23c5.19.09,9.67,3.13,13.7,6.1a107.72,107.72,0,0,0-8.95,10.49,108,108,0,0,0-13.59,2.51C408.74,304.47,408.28,299.07,410.8,294.55Z"/><path class="cls-1" d="M436.27,296.42c4.05-3,8.56-6.06,13.8-6.1a8.14,8.14,0,0,1,7.23,4.34c2.43,4.51,2,9.85,1.48,14.77a105.91,105.91,0,0,0-13.57-2.52A107.83,107.83,0,0,0,436.27,296.42Z"/><path class="cls-1" d="M426.32,306.6a90.89,90.89,0,0,1,7.7-8.24,93.82,93.82,0,0,1,7.7,8.24A129.71,129.71,0,0,0,426.32,306.6Z"/><path class="cls-1" d="M42.1,305.87c4.07-3,9.19-4,14.16-3.86q-.52,6.19-1.12,12.39c-4.22.28-8.48,2.09-10.83,5.75-3.6,5.6-4.39,13.44-.6,19.16,2.65,4.1,7.19,6.5,11.72,8,5,1.54,10.35,2.53,15.5,1.29a15.93,15.93,0,0,0,11-9.87c2.27-5.53,1.53-11.75-.33-17.29L74,319.27c-1.29,4.54-2.56,9.08-3.85,13.61l-9.93-2.79q3.62-12.82,7.24-25.65c7.85,2.2,15.68,4.45,23.53,6.62a41.33,41.33,0,0,1-1.5,36.23c-4,7.25-11.22,12.75-19.49,13.86-12.09,1.78-25.42-2.3-33.47-11.74A27.62,27.62,0,0,1,31,325.81C32.61,318.32,35.62,310.45,42.1,305.87Z"/><path class="cls-1" d="M424.28,309.35a103.07,103.07,0,0,1,19.48,0,98.65,98.65,0,0,1,9.82,16.92,93.72,93.72,0,0,1-9.85,17,90.51,90.51,0,0,1-19.19-.08c-4.34-4.9-7.25-11-10.07-16.93A97.6,97.6,0,0,1,424.28,309.35Zm6.12,9.93c-5.42,2.48-5.69,11-.45,13.81,4.73,3.13,11.76-.54,11.95-6.18C442.62,321,435.56,316.29,430.4,319.28Z"/><path class="cls-1" d="M409.82,312.33a87.21,87.21,0,0,1,11-2.53,126.25,126.25,0,0,0-7.68,13.29A84.5,84.5,0,0,1,409.82,312.33Z"/><path class="cls-1" d="M447.24,309.8a88,88,0,0,1,11,2.53,84.65,84.65,0,0,1-3.29,10.77A125.38,125.38,0,0,0,447.24,309.8Z"/><path class="cls-1" d="M395,321.87c2.73-4.29,7.48-6.6,12-8.55a102.78,102.78,0,0,0,4.61,12.95,111.34,111.34,0,0,0-4.61,13c-4.44-1.93-9.11-4.19-11.86-8.35A8.23,8.23,0,0,1,395,321.87Z"/><path class="cls-1" d="M456.42,326.25a103.47,103.47,0,0,0,4.6-12.93c4.51,1.95,9.28,4.27,12,8.57a8.25,8.25,0,0,1,0,8.92c-2.74,4.25-7.48,6.54-12,8.5A115.55,115.55,0,0,0,456.42,326.25Z"/><path class="cls-1" d="M851.43,330.51c12.53-3.16,25.18-5.84,37.77-8.78.93,4,1.84,8,2.76,12-12.43,2.9-24.89,5.62-37.3,8.61-3.59.88-7.62,2.09-9.55,5.55-2.26,4.15-1.22,9.26.55,13.4a8.34,8.34,0,0,0,8.43,5.27c5.85-.46,11.52-2.17,17.25-3.38q13-3,26-6c.91,4,1.84,8,2.75,12.05-7.12,1.64-14.25,3.23-21.35,4.9,1.44,2.72,3,5.71,5.93,7.09,1.91,1,4.12.48,6.19.5-.41-1.92-.83-3.83-1.23-5.73l11.41-2.6c.88,3.81,1.75,7.61,2.62,11.43-5.79,1.1-11.57,3.4-17.54,2.64-6.19-1.09-9.79-6.91-12-12.27-7.64,1.55-15.28,4-23.15,3.59s-13.39-7.26-15.57-14.27c-2.44-7.74-4-16.8.08-24.25C838.66,334.43,845.33,332.11,851.43,330.51Z"/><path class="cls-1" d="M409.81,340.27a92.43,92.43,0,0,1,3.3-10.78,120.9,120.9,0,0,0,7.69,13.33A86.25,86.25,0,0,1,409.81,340.27Z"/><path class="cls-1" d="M454.93,329.52a76.13,76.13,0,0,1,3.24,10.79,101.63,101.63,0,0,1-10.92,2.52A134.28,134.28,0,0,0,454.93,329.52Z"/><path class="cls-1" d="M409.22,343.21a118.27,118.27,0,0,0,13.62,2.52,108.59,108.59,0,0,0,8.93,10.48c-4,3-8.52,6-13.73,6.09a8.22,8.22,0,0,1-7.56-4.82C408.33,353.05,408.76,348,409.22,343.21Z"/><path class="cls-1" d="M445.19,345.73a116.61,116.61,0,0,0,13.6-2.52c.49,4.73.9,9.8-1.21,14.23a8.27,8.27,0,0,1-7.53,4.86c-5.23-.05-9.73-3.13-13.79-6.1A106.12,106.12,0,0,0,445.19,345.73Z"/><path class="cls-1" d="M426.33,346a138.08,138.08,0,0,0,15.36,0,86.34,86.34,0,0,1-7.67,8.21A86.47,86.47,0,0,1,426.33,346Z"/><path class="cls-1" d="M817.43,357.52q5.72-1.33,11.44-2.62l2.61,11.42q-5.72,1.33-11.43,2.62Q818.71,363.23,817.43,357.52Z"/><path class="cls-1" d="M21.55,371.46c20.22,2.7,40.45,5.28,60.65,8.09-.54,4.06-1.09,8.13-1.61,12.2C66.35,398.2,52.06,404.56,37.81,411c13.17,1.78,26.34,3.49,39.51,5.25q-.73,5.67-1.48,11.36c-20.23-2.63-40.44-5.35-60.66-8q.77-6,1.57-11.91,21.89-9.75,43.76-19.48c-13.48-1.8-27-3.56-40.46-5.36Q20.78,377.14,21.55,371.46Z"/><path class="cls-1" d="M291,400.48c17.13,25.94,42.3,45.52,69.45,60.12,16.89,9.15,34.69,16.48,52.78,22.88,19.86,6.38,40.17,11.2,60.43,16.14,17.15,4.28,34.67,7.37,51.3,13.52,26.61,9.56,51.51,25.48,68.89,48.06,15.4,20.4,21.08,46.59,20.45,71.77h-9.38c.8-18.53-2.33-37.51-11-54.05-12-23.25-33.49-40.12-56.76-51.15-17-7.56-35-12.39-53.09-16.72-16.89-4.11-34.13-6.65-50.81-11.6a392.09,392.09,0,0,1-57.19-20.64c-12.05-5.53-24-11.41-35-18.84-14.87-9.79-29.8-20-41.65-33.42-2.74-2.67-5.73-5.4-6.82-9.21A55.74,55.74,0,0,1,291,400.48Z"/><path class="cls-1" d="M845.84,428.76,907,430.84c-.13,4-.28,8-.39,12-13.87,7.93-27.8,15.76-41.69,23.66q20.42.72,40.82,1.4l-.39,11.47-61.15-2.07c.12-4.09.3-8.17.36-12.25,13.48-8,27.19-15.58,40.75-23.43-13.29-.48-26.57-.91-39.85-1.37Q845.61,434.48,845.84,428.76Z"/><path class="cls-1" d="M294.44,433c22.11,22.18,48.84,39.41,77.38,52.12a454.39,454.39,0,0,0,100.41,31.15c17,3.44,33.86,7.63,50.15,13.61,12.24,4.52,24.22,10.15,34.68,18a85.4,85.4,0,0,1,28.61,31.38c8.66,16.42,11.6,35.26,11.41,53.66l-275.37-.32c-6.48-40.51-11.54-81.23-17.06-121.88Q299.49,471.88,294.44,433Zm80.25,148.82q0,18.56,0,37.11h8.49c0-3.74,0-7.47,0-11.2q3.39-3.12,6.82-6.2,5.77,8.68,11.51,17.39c3.65,0,7.31,0,11,0-5.52-7.56-11.09-15.09-16.61-22.65q7.89-7.23,15.79-14.45-5.68,0-11.37,0l-17.09,16.41c0-5.48,0-11,0-16.42Zm42.16,0v37.1h8.48c0-5.41,0-10.82,0-16.23,5.5,0,11,0,16.5,0,0,5.4,0,10.8,0,16.21h8.49q0-18.55,0-37.1h-8.48c0,4.87,0,9.74,0,14.61H425.34V581.81Zm39.3,0q0,3.12,0,6.26h12.41v30.83h8.49q0-15.42,0-30.84h12.35q0-3.14,0-6.26Zm38.75,0q0,18.56,0,37.1h7.85q0-12.18,0-24.36c5.69,8.11,11.3,16.29,17,24.39,2.81,0,5.62,0,8.44,0q0-18.55,0-37.1h-7.84c0,8.23,0,16.47,0,24.7-5.85-8.16-11.46-16.49-17.23-24.7Z"/><path class="cls-1" d="M12.8,438.64c5.35-.32,10.74-1.32,16.09-.52,4.65.75,7.94,4.54,10,8.5,8.93-1.46,18.79-1.3,26.62,3.78C72.3,454.59,76.6,462,77.68,469.81c1.49,8.82,0,18.68-6.21,25.47-6.74,7.74-17.54,10.26-27.42,10-8.66-.07-17.61-3.45-23.08-10.38-5.95-7.7-7.22-18.25-5.28-27.58,2-9.14,9.29-16.35,18-19.4A10,10,0,0,0,25,443.58q.21,2.9.44,5.8-5.84.5-11.68.95Q13.27,444.48,12.8,438.64Zm26.71,20.92a19.74,19.74,0,0,0-10.31,5.52c-4.75,5.17-4.8,13.42-1.63,19.41,3,5.48,9.47,8,15.47,8.1,6.94.21,14.57-1,19.85-5.87,7.27-6.61,6-20.13-2.52-25.13C54.15,457.82,46.39,458.16,39.51,459.56Z"/><path class="cls-1" d="M12,471.92c.21,2.44.41,4.89.62,7.34q-5.73,6.27-11.51,12.52Q.51,485.23,0,478.69C4,476.41,8,474.19,12,471.92Z"/><path class="cls-1" d="M843.79,490.07q30.11,5.46,60.19,11-1.11,6.06-2.21,12.14c-7.9-1.42-15.79-2.88-23.68-4.3q-2.19,11.89-4.34,23.81c7.88,1.45,15.78,2.86,23.68,4.32l-2.22,12.15c-20.06-3.64-40.1-7.34-60.16-10.93q1.07-6.11,2.2-12.19c8.77,1.58,17.53,3.2,26.31,4.78q2.16-11.91,4.33-23.8-13.15-2.41-26.31-4.79Q842.66,496.14,843.79,490.07Z"/><path class="cls-1" d="M20.27,520.41C26.13,519.3,32,516.92,38,517.82c6.08,1.19,9.57,6.93,11.78,12.22,8.63-1.59,17.49-5.09,26.3-3,8.55,2.54,12.58,11.69,14,19.78,1.52,7.33,1.32,16.09-4.43,21.64-4.9,4.82-12,5.88-18.41,7.64l-32.59,7.46c-.92-4-1.85-8-2.75-12.05,13-3,26-5.79,38.92-9,4-.88,8.16-3.44,8.94-7.77.72-4.82-.4-10.27-3.78-13.91-3.16-3.14-8-2.06-11.85-1.32-12.57,2.72-25.07,5.75-37.63,8.54q-1.38-6-2.75-12c7.11-1.65,14.24-3.24,21.35-4.91-1.37-2.58-2.81-5.38-5.47-6.85-2-1.28-4.46-.79-6.68-.68q.63,2.82,1.28,5.65-5.7,1.34-11.42,2.62Q21.57,526.13,20.27,520.41Z"/><path class="cls-1" d="M831.45,550.54q29.46,8.28,58.92,16.62-1.67,6-3.36,11.9-29.46-8.29-58.91-16.62C829.19,558.47,830.32,554.5,831.45,550.54Z"/><path class="cls-1" d="M807.87,616.63q8.37-21.71,16.77-43.41l57.06,22q-8.13,21.18-16.33,42.33-4.85-1.86-9.65-3.74,5.92-15.4,11.89-30.78-6.33-2.46-12.66-4.9-5.55,14.33-11.07,28.67l-9.61-3.73q5.52-14.33,11.07-28.64c-5.17-2-10.36-4-15.54-6-4.12,10.62-8.19,21.26-12.32,31.87Z"/><path class="cls-1" d="M84.36,595.23c3.77-6.55,8.16-12.72,12.26-19.06,2,4.47,4.1,9,6.14,13.44C98.22,597.36,93,604.75,89,612.79c-2.23,4.33.37,8.88,2.14,12.84,7.76-3.54,15.49-7.13,23.26-10.64q2.57,5.61,5.14,11.23Q91.73,639,63.88,651.72c-4-8.87-8.18-17.68-12.13-26.59-1.9-4.77-4.1-10-2.76-15.2,2.23-8.37,11.6-13.86,20-12.36,5.13.91,9,4.78,11.81,9A29,29,0,0,1,84.36,595.23ZM60.42,615c-.68,2.49.4,5,1.37,7.24,2.07,4.67,4.23,9.31,6.37,14l14.11-6.46c-2.81-5.85-5.08-12-8.61-17.45C70.37,607.25,61.82,609.5,60.42,615Z"/><path class="cls-1" d="M878.75,612.71c1.12-3,2.25-5.89,3.42-8.81,2.77,4.2,5.57,8.39,8.31,12.61-1.32,3.35-2.61,6.72-3.9,10.08L872,630.22q1.66-4.41,3.4-8.8c2.5-.76,5-1.52,7.52-2.27Z"/><path class="cls-1" d="M796.81,636c2-3.25,4.07-6.47,6.13-9.7q25.86,16.38,51.71,32.78c-2.15,3.38-4.29,6.78-6.45,10.16q-24-.36-47.9-.72c11.49,7.32,23,14.58,34.5,21.89q-3.07,4.83-6.13,9.67Q802.78,683.72,777,667.31c2.13-3.47,4.4-6.85,6.45-10.36,15.69-.14,31.39.33,47.09.38Q813.65,646.64,796.81,636Z"/><path class="cls-1" d="M90.2,675.69q21.51-13.56,43-27.14c2.22,3.47,4.41,7,6.6,10.45q-21.5,13.57-43,27.15c3.21,5.12,6.46,10.23,9.67,15.36l-8.74,5.54q-13-20.58-26-41.15,4.35-2.79,8.74-5.53C83.74,665.47,87,670.59,90.2,675.69Z"/><path class="cls-1" d="M365,676c9.1-1.78,19.39-.77,26.84,5.17,5.78,4.49,9.16,11.49,10.14,18.65,1.5,10.42.1,22-7.09,30.17a51.63,51.63,0,0,0,9.87,5.19q-2.33,4.44-4.58,8.91c-5.08-1.59-9.26-4.92-13.66-7.76a36.43,36.43,0,0,1-27.69-.21c-7.93-3.5-13.38-11.29-14.94-19.7-1.59-8.7-1.3-18.09,2.54-26.18A26.3,26.3,0,0,1,365,676Zm-4.61,15.21c-4.14,4.82-4.8,11.54-4.61,17.64.18,5.79,1.67,12.09,6.3,16,4.12,3.76,10.21,4.49,15.44,2.93a46.54,46.54,0,0,0-7.73-4q1.72-3.6,3.46-7.17A48.76,48.76,0,0,1,385,723a24.33,24.33,0,0,0,4.69-14.14c.19-6-.41-12.48-4.27-17.31C379.44,684,366.52,683.86,360.35,691.21Z"/><path class="cls-1" d="M421.26,681.12c8.41-6.6,20.15-7.08,30.15-4.47,7.78,2.05,13.57,8.86,15.25,16.6-4.09.79-8.17,1.54-12.26,2.32-1.42-3.84-4.09-7.4-8.08-8.76-6.43-2.16-14.4-.88-19,4.38-3.34,3.72-4.44,8.88-4.61,13.75s.33,10.11,2.62,14.59a15.93,15.93,0,0,0,11.7,8.54c6.35,1.1,12.75-1.31,17.86-5-.05-2.62-.06-5.23-.05-7.83H440.66q0-5.22,0-10.43h26.67c0,8.25,0,16.5,0,24.75a41.79,41.79,0,0,1-35.13,8.36,27.06,27.06,0,0,1-17.56-12.61C406.92,711.49,408.28,691.38,421.26,681.12Z"/><path class="cls-1" d="M588.06,676c8.44-1.82,18.12-.71,24.81,5.16,3.69,3.06,5.7,7.56,7.15,12l-12.17,2.95c-.94-2.52-1.92-5.17-4-7-5.91-5.47-16.5-4.09-20.93,2.61-3.32,5-3.55,11.32-3.42,17.15.26,5.22,1,10.95,4.65,15,4.7,5.31,13.87,6,19.07,1.05,2.8-2.55,4-6.28,5-9.78,4,1.25,8,2.47,11.93,3.72-1.65,5.64-4.32,11.29-9.08,15-6.53,5.08-15.47,6-23.36,4.3-9.79-2.11-17.57-10.43-19.81-20.08a45.77,45.77,0,0,1,1.14-25.2A26.31,26.31,0,0,1,588.06,676Z"/><path class="cls-1" d="M221.87,676.25c7.74,0,15.49,0,23.24,0,5.52,0,11.37.39,16.15,3.46,7.19,4.48,10.86,12.93,11.65,21.12,1,9.62.24,20.2-5.71,28.22-4.32,6-11.93,8.66-19.1,8.8-8.73.17-17.47,0-26.2.06q0-13.44,0-26.88h-6.34c0-2.61,0-5.22,0-7.81,2.1,0,4.2,0,6.31,0C221.88,694.21,221.93,685.23,221.87,676.25Zm12.44,10.42c0,5.51,0,11,0,16.53,4.38,0,8.77,0,13.16,0,0,2.59,0,5.19,0,7.8H234.3c0,5.49,0,11,0,16.46,6.33-.31,13,.89,19.05-1.39,6-2.8,6.84-10.34,7.14-16.19.1-7.1.34-15.81-5.82-20.65C248.67,685.37,241.06,687.11,234.31,686.67Z"/><path class="cls-1" d="M283.7,676.24h12.39c0,8.09,0,16.18,0,24.27,8.07,0,16.13,0,24.2,0q0-12.12,0-24.25h12.4q0,30.82,0,61.66H320.31q0-13.49,0-27H296.1q0,13.49,0,27H283.69Q283.69,707.08,283.7,676.24Z"/><path class="cls-1" d="M507.11,676.24c4.13,0,8.26,0,12.4,0q0,12.12,0,24.25h24.21q0-12.13,0-24.25c4.13,0,8.26,0,12.4,0q0,30.82,0,61.66H543.72q0-13.47,0-27-12.12,0-24.23,0,0,13.48,0,27H507.1Q507.1,707.07,507.11,676.24Z"/><path class="cls-1" d="M630.53,676.24h18.61q5.5,21,11,42c3.68-14,7.27-28,11-42h18.63q0,30.82,0,61.66H678.29c0-16.11,0-32.22-.06-48.32-4.12,16.09-8.09,32.22-12.15,48.33H654.15c-3.95-16.1-8.18-32.14-11.91-48.29-.46,16.09-.11,32.19-.24,48.28H630.53Q630.54,707.08,630.53,676.24Z"/><path class="cls-1" d="M477.18,709.66H500.3v11.77c-7.7,0-15.41,0-23.12,0Q477.15,715.54,477.18,709.66Z"/><path class="cls-2" d="M407,290.81a9.44,9.44,0,0,1,9.13-5.7c7,.39,12.78,4.87,17.91,9.19,5.15-4.35,11-8.87,18-9.19a9.46,9.46,0,0,1,9,5.8c2.7,6.1,1.77,13,.64,19.4,6.13,2.21,12.65,4.91,16.58,10.39a9.59,9.59,0,0,1-.1,11.37c-4,5.38-10.4,8.05-16.48,10.24,1.15,6.42,2.07,13.42-.71,19.56a9.58,9.58,0,0,1-9.91,5.6c-6.64-.76-12.17-5-17.1-9.15-4.92,4.15-10.4,8.34-17,9.14A9.58,9.58,0,0,1,407,361.77c-2.74-6.12-1.8-13.08-.67-19.47-6.08-2.17-12.49-4.84-16.45-10.2a9.57,9.57,0,0,1-.09-11.45c3.94-5.45,10.43-8.14,16.54-10.35C405.15,303.9,404.23,296.94,407,290.81Zm3.82,3.74c-2.52,4.52-2.06,9.92-1.57,14.87a108,108,0,0,1,13.59-2.51,107.72,107.72,0,0,1,8.95-10.49c-4-3-8.51-6-13.7-6.1A8.11,8.11,0,0,0,410.8,294.55Zm25.47,1.87a107.83,107.83,0,0,1,8.94,10.49,105.91,105.91,0,0,1,13.57,2.52c.52-4.92,1-10.26-1.48-14.77a8.14,8.14,0,0,0-7.23-4.34C444.83,290.36,440.32,293.43,436.27,296.42Zm-9.95,10.18a129.71,129.71,0,0,1,15.4,0,93.82,93.82,0,0,0-7.7-8.24A90.89,90.89,0,0,0,426.32,306.6Zm-2,2.75a97.6,97.6,0,0,0-9.81,16.91c2.82,5.9,5.73,12,10.07,16.93a90.51,90.51,0,0,0,19.19.08,93.72,93.72,0,0,0,9.85-17,98.65,98.65,0,0,0-9.82-16.92A103.07,103.07,0,0,0,424.28,309.35Zm-14.46,3a84.5,84.5,0,0,0,3.29,10.76,126.25,126.25,0,0,1,7.68-13.29A87.21,87.21,0,0,0,409.82,312.33Zm37.42-2.53a125.38,125.38,0,0,1,7.68,13.3,84.65,84.65,0,0,0,3.29-10.77A88,88,0,0,0,447.24,309.8ZM395,321.87a8.23,8.23,0,0,0,.13,9.08c2.75,4.16,7.42,6.42,11.86,8.35a111.34,111.34,0,0,1,4.61-13A102.78,102.78,0,0,1,407,313.32C402.5,315.27,397.75,317.58,395,321.87Zm61.4,4.38a115.55,115.55,0,0,1,4.6,13.06c4.48-2,9.22-4.25,12-8.5a8.25,8.25,0,0,0,0-8.92c-2.72-4.3-7.49-6.62-12-8.57A103.47,103.47,0,0,1,456.42,326.25Zm-46.61,14a86.25,86.25,0,0,0,11,2.55,120.9,120.9,0,0,1-7.69-13.33A92.43,92.43,0,0,0,409.81,340.27Zm45.12-10.75a134.28,134.28,0,0,1-7.68,13.31,101.63,101.63,0,0,0,10.92-2.52A76.13,76.13,0,0,0,454.93,329.52Zm-45.71,13.69c-.46,4.74-.89,9.84,1.26,14.27A8.22,8.22,0,0,0,418,362.3c5.21-.08,9.68-3.13,13.73-6.09a108.59,108.59,0,0,1-8.93-10.48A118.27,118.27,0,0,1,409.22,343.21Zm36,2.52a106.12,106.12,0,0,1-8.93,10.47c4.06,3,8.56,6.05,13.79,6.1a8.27,8.27,0,0,0,7.53-4.86c2.11-4.43,1.7-9.5,1.21-14.23A116.61,116.61,0,0,1,445.19,345.73Zm-18.86.3a86.47,86.47,0,0,0,7.69,8.21,86.34,86.34,0,0,0,7.67-8.21A138.08,138.08,0,0,1,426.33,346Z"/><path class="cls-2" d="M430.4,319.28c5.16-3,12.22,1.74,11.5,7.63-.19,5.64-7.22,9.31-11.95,6.18C424.71,330.27,425,321.76,430.4,319.28Z"/><path class="cls-2" d="M374.69,581.81h8.48c0,5.47,0,10.94,0,16.42l17.09-16.41q5.69,0,11.37,0-7.87,7.25-15.79,14.45c5.52,7.56,11.09,15.09,16.61,22.65-3.65,0-7.31,0-11,0q-5.73-8.71-11.51-17.39-3.42,3.07-6.82,6.2c0,3.73,0,7.46,0,11.2h-8.49Q374.68,600.37,374.69,581.81Z"/><path class="cls-2" d="M416.85,581.81h8.49v14.61h16.51c0-4.87,0-9.74,0-14.61h8.48q0,18.56,0,37.1h-8.49c0-5.41,0-10.81,0-16.21-5.5,0-11,0-16.5,0,0,5.41,0,10.82,0,16.23h-8.48Z"/><path class="cls-2" d="M456.15,581.81h33.26q0,3.12,0,6.26H477.06q0,15.42,0,30.84h-8.49V588.08H456.15Q456.14,584.93,456.15,581.81Z"/><path class="cls-2" d="M494.9,581.81h8.21c5.77,8.21,11.38,16.54,17.23,24.7.07-8.23,0-16.47,0-24.7h7.84q0,18.56,0,37.1c-2.82,0-5.63,0-8.44,0-5.72-8.1-11.33-16.28-17-24.39q0,12.18,0,24.36H494.9Q494.9,600.36,494.9,581.81Z"/></g></g></svg>