<svg width="1024" height="294" viewBox="0 0 1024 294" fill="none" xmlns="http://www.w3.org/2000/svg">
<path d="M38.1187 91.9152C56.8459 82.2172 74.9598 70.8974 93.2915 60.4297C100.414 56.3626 107.527 51.7444 115.002 48.4001C127.984 54.8597 140.442 62.9551 153.062 70.138C161.178 74.7157 186.392 87.8438 191.455 92.6106L191.51 136.056C178.65 143.11 166.163 150.983 153.107 157.651L153.213 201.832C140.989 209.113 128.53 216.865 115.865 223.3L115.25 223.529C108.731 221.703 83.7765 206.392 76.6429 201.956C72.0666 200.035 67.5739 196.987 63.286 194.49L38.2535 179.876C37.7724 170.704 38.1927 161.289 38.1984 152.097C38.2795 132.036 38.2529 111.975 38.1187 91.9152Z" fill="#86CCF7"/>
<path d="M38.1187 91.9152C56.8459 82.2172 74.9598 70.8974 93.2916 60.4297C100.414 56.3626 107.527 51.7444 115.002 48.4001C127.984 54.8597 140.442 62.9551 153.062 70.138C146.676 74.4627 139.733 78.1329 133.045 81.9872L96.743 102.79C90.064 106.626 83.2103 110.333 76.9001 114.758L76.9747 174.681C76.9759 182.616 77.8732 194.426 76.6429 201.956C72.0666 200.035 67.5739 196.987 63.286 194.49L38.2535 179.876C37.7724 170.704 38.1927 161.289 38.1984 152.097C38.2795 132.036 38.2529 111.975 38.1187 91.9152Z" fill="#B3DCF9"/>
<path d="M115.068 136.355L172.474 103.412C177.024 100.8 187.203 93.7934 191.455 92.6105L191.51 136.056C178.65 143.11 166.163 150.983 153.107 157.651L153.213 201.832C140.989 209.113 128.53 216.865 115.865 223.3L115.488 223.043C114.794 222.147 115.474 144.499 115.068 136.355Z" fill="#009CF3"/>
<path d="M704.259 103.622C705.188 103.546 706.12 103.507 707.051 103.505C711.82 103.537 715.701 105.92 718.957 109.201C725.179 105.961 732.013 104.061 739.015 103.624C753.76 102.692 766.494 107.945 777.443 117.556C780.975 114.198 784.635 111.358 788.98 109.114C801.09 102.993 815.128 101.9 828.039 106.073C841.019 110.215 851.444 119.301 857.657 131.388C860.042 136.017 861.648 141.006 862.413 146.155C863.447 152.844 863.85 189.701 862.219 194.655C860.878 198.72 858.03 201.707 854.223 203.596C850.744 205.326 846.775 205.888 843.057 204.622C838.54 203.085 834.695 199.939 832.901 195.446C828.198 183.658 835.404 157.87 829.307 145.605C826.999 141.066 822.976 137.635 818.127 136.074C812.941 134.346 807.549 135.272 802.756 137.635C784.264 148.966 798.625 179.8 791.108 196.181C789.466 199.762 786.878 202.556 783.118 203.904C778.929 205.404 773.949 205.264 769.926 203.324C765.97 201.416 763.362 197.971 762.138 193.802C758.635 181.864 764.246 159.937 759.821 147.631C758.151 142.988 754.977 139.231 750.465 137.152C745.767 134.988 740.226 134.542 735.348 136.353C712.487 144.84 728.699 178.977 720.838 196.048C719.177 199.655 716.478 202.542 712.698 203.913C708.497 205.437 703.859 205.213 699.825 203.291C696.274 201.632 693.324 198.2 692.017 194.522C689.923 188.642 690.38 129.931 690.947 120.846C691.114 118.165 691.262 115.02 692.466 112.581C694.898 107.656 699.285 105.332 704.259 103.622Z" fill="#009CF3"/>
<path d="M481.782 52.7405L482.395 52.7367C487.058 52.7307 491.355 53.7695 494.736 57.1785C496.626 59.0846 498.21 61.6026 498.819 64.231C500.556 71.7033 499.679 80.705 499.672 88.3717L499.607 126.427C508.204 121.801 516.835 117.238 525.499 112.739C531.311 109.699 537.575 105.724 543.946 104.039C546.54 103.327 549.281 103.343 551.865 104.089C556.079 105.31 559.444 108.409 561.519 112.212C563.362 115.589 563.988 119.339 562.887 123.067C561.901 126.405 559.661 129.187 557.003 131.369C552.453 135.105 546.33 137.645 541.107 140.341C532.174 144.869 523.297 149.506 514.475 154.25C523.566 159.041 532.691 163.766 541.849 168.425C546.965 171.063 552.371 173.557 557.147 176.77C559.766 178.923 561.703 181.586 562.758 184.832C563.969 188.553 563.569 192.454 561.77 195.912C559.606 199.986 555.914 203.036 551.505 204.393C549.161 205.113 546.496 205.286 544.111 204.653C538.537 203.173 532.775 199.448 527.653 196.772L499.537 181.966C499.878 187.622 499.936 192.933 496.656 197.853C494.339 201.327 489.894 203.917 485.838 204.704C482.1 205.432 477.91 204.002 474.827 201.918C472.03 200.026 469.054 196.583 468.443 193.169C467.308 186.845 467.857 179.634 467.853 173.196L467.837 139.471L467.835 92.7166C467.837 84.0146 467.37 75.0152 468.157 66.3619C468.408 63.6039 469.105 61.6499 470.682 59.3678C473.361 55.4922 477.264 53.5817 481.782 52.7405Z" fill="#009CF3"/>
<path fill-rule="evenodd" clip-rule="evenodd" d="M403.983 103.559C417.452 103.645 430.345 109.018 439.887 118.518C457.708 136.302 454.912 160.068 454.91 183.178C454.91 189.378 454.652 195.705 449.936 200.345C447.122 203.113 442.772 205.079 438.79 204.995C434.229 204.901 429.953 202.509 426.848 199.29C422.521 201.294 418.032 202.685 413.432 203.909C412.094 204.18 410.748 204.415 409.396 204.61C396.492 206.383 382.74 201.967 372.489 194.197C361.967 186.249 355.064 174.425 353.316 161.361C351.521 148.204 354.733 134.321 362.845 123.708C372.179 111.498 384.615 105.768 399.534 103.758C401.008 103.596 402.501 103.563 403.983 103.559ZM422.792 153.151C422.208 142.615 413.181 134.553 402.639 135.151C392.121 135.749 384.073 144.748 384.656 155.262C385.239 165.775 394.231 173.831 404.753 173.264C415.295 172.696 423.376 163.686 422.792 153.151Z" fill="#009CF3"/>
<path fill-rule="evenodd" clip-rule="evenodd" d="M922.863 103.615C950.808 101.147 975.464 121.782 977.939 149.709C980.417 177.636 959.775 202.282 931.832 204.762C903.881 207.245 879.211 186.607 876.734 158.671C874.257 130.736 894.912 106.084 922.863 103.615ZM946.497 153.375C946.037 142.793 937.041 134.611 926.456 135.147C915.981 135.679 907.897 144.557 908.351 155.03C908.806 165.503 917.631 173.648 928.113 173.27C938.704 172.888 946.956 163.958 946.497 153.375Z" fill="#009CF3"/>
<path d="M589.117 103.617C589.919 103.556 590.723 103.517 591.528 103.501C595.635 103.433 600.051 104.792 603.025 107.707C605.321 109.958 606.73 112.982 607.438 116.086C609.326 124.38 607.932 141.38 607.974 150.621C608.005 157.216 609.069 163.387 613.998 168.206C617.392 171.525 622.432 173.67 627.199 173.615C631.017 173.572 634.731 172.293 637.892 170.178C656.475 157.752 637.998 121.195 651.395 107.747C654.311 104.821 658.487 103.542 662.552 103.533C666.697 103.524 670.522 105.165 673.439 108.095C675.124 109.784 676.573 111.835 677.266 114.135C679.723 122.294 678.374 144.185 678.381 153.746C678.323 164.703 678.881 175.762 678.403 186.703C678.166 192.134 676.89 197.294 672.725 201.072C669.669 203.844 665.318 205.541 661.173 205.297C657.083 205.057 653.138 202.569 650.486 199.58C648.176 200.672 645.695 201.634 643.272 202.44C630.133 206.812 616.483 205.652 604.091 199.455C592.272 193.547 583.28 183.196 579.086 170.671C577.882 166.987 577.078 163.184 576.687 159.328C575.925 152.17 576.307 144.925 576.247 137.739C576.194 131.498 575.637 124.871 576.33 118.671C576.598 116.296 577.134 113.992 578.231 111.854C580.563 107.309 584.397 105.105 589.117 103.617Z" fill="#009CF3"/>
<path d="M285.187 103.157C286.993 103.262 288.93 103.395 290.65 103.977C296.203 105.854 299.219 110.318 301.707 115.33C309.67 110.985 323.6 101.524 332.802 104.048C337.034 105.251 340.621 108.077 342.78 111.91C344.737 115.388 345.395 119.63 344.262 123.486C343.398 126.431 341.589 128.742 339.273 130.704C331.751 137.077 311.287 145.832 301.445 151.271C301.607 155.627 301.531 160.014 301.554 164.375C301.505 172.548 303.351 189.373 299.643 196.303C297.595 200.132 293.606 203.147 289.45 204.348C285.822 205.394 281.766 204.635 278.51 202.824C274.898 200.812 271.658 197.142 270.565 193.1C269.068 187.567 269.983 169.549 269.98 162.929C269.972 148.524 269.317 133.772 270.145 119.403C270.276 117.153 270.321 114.13 271.475 112.18C271.824 111.589 272.171 110.997 272.562 110.432C275.585 106.055 280.119 104.114 285.187 103.157Z" fill="#009CF3"/>
</svg>
