<?xml version="1.0" encoding="utf-8"?>
<!-- Generator: Adobe Illustrator 16.0.0, SVG Export Plug-In . SVG Version: 6.00 Build 0)  -->
<!DOCTYPE svg PUBLIC "-//W3C//DTD SVG 1.1//EN" "http://www.w3.org/Graphics/SVG/1.1/DTD/svg11.dtd">
<svg version="1.1" id="Layer_1" xmlns="http://www.w3.org/2000/svg" xmlns:xlink="http://www.w3.org/1999/xlink" x="0px" y="0px"
	 width="67px" height="19px" viewBox="0 0 67 19" enable-background="new 0 0 67 19" xml:space="preserve">
<g>
	<circle fill="#676767" cx="57.022" cy="9.59" r="8.5"/>
	<g>
		<line fill="none" stroke="#D6D5D5" stroke-width="1.5" stroke-linecap="round" x1="53.022" y1="5.59" x2="61.022" y2="13.59"/>
		<line fill="none" stroke="#D6D5D5" stroke-width="1.5" stroke-linecap="round" x1="53.022" y1="13.59" x2="61.022" y2="5.59"/>
	</g>
	<g>
		<path fill="#D6D5D5" d="M7.197,7.592c-0.112-0.18-0.252-0.338-0.42-0.474C6.609,6.982,6.419,6.876,6.207,6.8
			C5.995,6.724,5.773,6.686,5.541,6.686c-0.424,0-0.784,0.082-1.08,0.246c-0.296,0.164-0.536,0.384-0.72,0.66
			s-0.318,0.59-0.402,0.942C3.255,8.886,3.213,9.25,3.213,9.625c0,0.36,0.042,0.71,0.126,1.05c0.084,0.34,0.218,0.646,0.402,0.917
			c0.184,0.272,0.424,0.49,0.72,0.655c0.296,0.164,0.656,0.246,1.08,0.246c0.576,0,1.026-0.176,1.351-0.528
			c0.324-0.353,0.521-0.816,0.594-1.393H9.31c-0.048,0.536-0.172,1.02-0.372,1.452c-0.2,0.431-0.464,0.8-0.792,1.103
			c-0.328,0.305-0.712,0.537-1.152,0.697s-0.924,0.24-1.452,0.24c-0.656,0-1.246-0.115-1.77-0.342
			c-0.524-0.229-0.966-0.543-1.326-0.943c-0.36-0.398-0.636-0.87-0.828-1.41c-0.192-0.54-0.288-1.122-0.288-1.746
			c0-0.64,0.096-1.233,0.288-1.782C1.81,7.296,2.085,6.818,2.445,6.41c0.36-0.408,0.802-0.728,1.326-0.96
			c0.523-0.232,1.114-0.348,1.77-0.348c0.472,0,0.918,0.068,1.338,0.204C7.299,5.442,7.675,5.64,8.007,5.9
			c0.332,0.26,0.606,0.582,0.822,0.966C9.045,7.25,9.181,7.69,9.237,8.186H7.413C7.381,7.97,7.31,7.772,7.197,7.592z"/>
		<path fill="#D6D5D5" d="M12.477,5.306v6.983h4.176v1.584h-6.061V5.306H12.477z"/>
		<path fill="#D6D5D5" d="M17.625,7.844c0.192-0.548,0.468-1.026,0.828-1.434c0.36-0.408,0.802-0.728,1.326-0.96
			c0.523-0.232,1.114-0.348,1.77-0.348c0.664,0,1.256,0.116,1.776,0.348c0.52,0.232,0.96,0.552,1.32,0.96
			c0.36,0.408,0.636,0.886,0.828,1.434c0.192,0.548,0.288,1.142,0.288,1.782c0,0.624-0.096,1.206-0.288,1.746
			s-0.468,1.011-0.828,1.41c-0.36,0.4-0.8,0.715-1.32,0.943c-0.521,0.227-1.112,0.342-1.776,0.342c-0.656,0-1.246-0.115-1.77-0.342
			c-0.524-0.229-0.966-0.543-1.326-0.943c-0.36-0.398-0.636-0.87-0.828-1.41c-0.192-0.54-0.288-1.122-0.288-1.746
			C17.337,8.986,17.433,8.392,17.625,7.844z M19.347,10.676c0.084,0.34,0.218,0.646,0.402,0.917c0.184,0.272,0.424,0.49,0.72,0.655
			c0.296,0.164,0.656,0.246,1.08,0.246c0.424,0,0.784-0.082,1.08-0.246c0.296-0.165,0.536-0.382,0.72-0.655
			c0.184-0.271,0.318-0.577,0.402-0.917c0.084-0.34,0.126-0.69,0.126-1.05c0-0.375-0.042-0.74-0.126-1.092
			c-0.084-0.352-0.218-0.666-0.402-0.942s-0.424-0.496-0.72-0.66c-0.296-0.164-0.656-0.246-1.08-0.246
			c-0.424,0-0.784,0.082-1.08,0.246c-0.296,0.164-0.536,0.384-0.72,0.66s-0.318,0.59-0.402,0.942
			c-0.084,0.352-0.126,0.716-0.126,1.092C19.221,9.986,19.263,10.336,19.347,10.676z"/>
		<path fill="#D6D5D5" d="M28.485,11.761c0.104,0.201,0.241,0.364,0.414,0.487s0.374,0.215,0.606,0.275
			c0.232,0.061,0.472,0.09,0.72,0.09c0.168,0,0.348-0.014,0.54-0.041c0.192-0.029,0.372-0.082,0.54-0.162
			c0.168-0.08,0.309-0.189,0.42-0.331c0.112-0.14,0.168-0.318,0.168-0.533c0-0.232-0.074-0.421-0.222-0.564
			c-0.148-0.144-0.342-0.264-0.582-0.36c-0.24-0.096-0.512-0.18-0.816-0.252c-0.304-0.072-0.612-0.152-0.924-0.24
			c-0.32-0.08-0.632-0.178-0.936-0.294c-0.304-0.116-0.576-0.266-0.816-0.45c-0.24-0.184-0.434-0.414-0.582-0.69
			s-0.222-0.61-0.222-1.002c0-0.44,0.094-0.822,0.282-1.146c0.188-0.324,0.434-0.594,0.738-0.81s0.648-0.376,1.032-0.48
			c0.384-0.104,0.769-0.156,1.152-0.156c0.448,0,0.878,0.05,1.29,0.15s0.778,0.262,1.097,0.486c0.32,0.224,0.574,0.51,0.764,0.858
			c0.188,0.348,0.281,0.77,0.281,1.266h-1.824c-0.016-0.256-0.07-0.468-0.162-0.636c-0.092-0.168-0.214-0.3-0.366-0.396
			c-0.152-0.096-0.326-0.164-0.522-0.204c-0.196-0.04-0.41-0.06-0.642-0.06c-0.152,0-0.304,0.016-0.456,0.048
			c-0.152,0.032-0.29,0.088-0.414,0.168s-0.226,0.18-0.306,0.3c-0.08,0.12-0.12,0.272-0.12,0.456c0,0.168,0.032,0.304,0.096,0.408
			c0.064,0.104,0.19,0.2,0.378,0.288c0.188,0.088,0.448,0.176,0.78,0.264c0.332,0.088,0.766,0.2,1.302,0.336
			c0.16,0.032,0.382,0.09,0.666,0.174c0.284,0.084,0.566,0.218,0.846,0.402c0.279,0.184,0.521,0.43,0.727,0.738
			c0.203,0.308,0.305,0.702,0.305,1.182c0,0.393-0.076,0.756-0.227,1.092c-0.152,0.336-0.379,0.627-0.678,0.869
			c-0.301,0.244-0.672,0.436-1.116,0.57c-0.444,0.137-0.958,0.205-1.542,0.205c-0.473,0-0.93-0.059-1.374-0.174
			c-0.444-0.117-0.836-0.299-1.176-0.547c-0.34-0.248-0.61-0.564-0.81-0.947c-0.2-0.385-0.296-0.84-0.288-1.369h1.824
			C28.329,11.318,28.381,11.562,28.485,11.761z"/>
		<path fill="#D6D5D5" d="M41.241,5.306V6.89h-4.525v1.836h4.152v1.464h-4.152v2.099h4.621v1.584h-6.504V5.306H41.241z"/>
	</g>
</g>
</svg>
